<svg width="176" height="173" viewBox="0 0 176 173" fill="none" xmlns="http://www.w3.org/2000/svg">
<path d="M175.105 92.2886C181.117 54.3229 156.273 28.4047 118.681 34.0081C110.126 35.2663 101.838 38.1062 95.1641 43.635C89.6394 48.2023 85.778 47.4364 80.38 43.4573C70.9676 36.5263 60.089 33.2119 48.2812 33.4589C17.548 33.4145 -1.27693 53.0896 0.067709 84.0692C0.947709 104.137 7.52483 121.937 22.3388 135.808C27.7666 140.917 28.108 144.161 22.242 149.434C16.962 154.173 7.67091 159.752 15.1034 168.449C22.242 176.841 29.868 170.449 36.5754 165.606C37.8954 164.644 39.2893 163.681 40.2908 162.421C44.6432 156.867 49.3372 156.448 56.2064 158.472C75.665 164.159 95.7853 164.545 115.342 159.435C125.047 156.892 131.793 157.559 139.006 164.989C144.946 171.111 153.772 177.307 161.106 168.001C167.951 159.361 158.466 153.88 153.209 149.043C147.952 144.205 147.806 141.193 152.94 136.425C165.693 124.576 172.366 109.543 175.105 92.2886ZM49.4252 121.226C45.1466 125.916 41.6512 126.089 37.4959 121.104C27.6399 109.374 21.7773 96.122 22.3388 80.5948C22.8773 65.6666 32.8266 56.4786 49.2298 56.3542C58.3818 56.7505 66.0976 61.7604 71.6469 70.8932C76.9516 79.6334 74.5562 86.9891 69.2516 94.6896C62.9684 103.81 56.9298 113.025 49.4252 121.226ZM64.2637 139.531C72.5023 128.772 79.8608 119.145 87.8055 108.786C95.4333 118.585 103.012 128.335 111.275 138.975C95.7026 145.582 80.7162 144.546 64.2637 139.531ZM138.483 120.377C134.938 125.067 131.589 126.844 126.823 121.61C117.166 111.025 108.593 99.5946 102.327 86.6852C97.6826 77.1809 106.532 62.6934 118.871 58.0994C132.439 53.0647 146.69 59.2101 150.627 72.1213C151.799 75.9724 151.799 80.1683 152.142 82.7363C151.294 97.7445 146.551 109.691 138.483 120.38V120.377Z" fill="white"/>
<path d="M105.015 18.6035C104.745 27.9852 97.0208 35.9825 88.1188 36.0571C78.708 36.1549 70.7387 27.6387 70.9816 17.6919C71.2245 7.74503 79.6408 -0.428173 89.0023 0.238266C97.9008 0.856721 105.259 9.29828 105.015 18.6035Z" fill="white"/>
</svg>
