<svg xmlns="http://www.w3.org/2000/svg" width="14" height="14" viewBox="0 0 14 14">
    <path fill="#747474" fill-rule="evenodd" d="M2.8 7.875h.933V7H2.8v.875zm-.933.875h2.8V6.125h-2.8V8.75zm.933 2.625h.933V10.5H2.8v.875zm-.933.875h2.8V9.625h-2.8v2.625zm4.666-4.375h.933V7h-.933v.875zM5.6 8.75h2.8V6.125H5.6V8.75zm.933 2.625h.933V10.5h-.933v.875zm-.933.875h2.8V9.625H5.6v2.625zm4.666-4.375h.933V7h-.933v.875zm-.933.875h2.8V6.125h-2.8V8.75zm.933 2.625h.933V10.5h-.933v.875zm-.933.875h2.8V9.625h-2.8v2.625zm3.733-7.875H.933v8.313c0 .241.21.437.467.437H12.6c.258 0 .467-.196.467-.437V4.375zm0-2.187c0-.242-.21-.438-.467-.438h-2.333v.876h-.933V1.75H4.666v.876h-.933V1.75H1.4c-.258 0-.467.196-.467.438V3.5h12.133V2.188zM.933 14C.418 14 0 13.608 0 13.125V1.75C0 1.267.418.875.933.875h2.8V0h.933v.875h4.667V0h.933v.875h2.8c.515 0 .933.392.933.875v11.375c0 .483-.418.875-.933.875H.933z"/>
</svg>
