<svg xmlns="http://www.w3.org/2000/svg" width="16" height="16" viewBox="0 0 16 16">
    <g fill="none" fill-rule="evenodd" transform="translate(0 .5)">
        <circle cx="5" cy="8" r="1" fill="#000" fill-rule="nonzero"/>
        <path fill="#000" fill-rule="nonzero" d="M5 10a2 2 0 0 1 2 2H3a2 2 0 0 1 2-2z"/>
        <path stroke="#000" stroke-linecap="round" stroke-linejoin="round" d="M9.5 8.5h3M9.5 11.5h3M4.5 3.5h-3a1 1 0 0 0-1 1v9a1 1 0 0 0 1 1h13a1 1 0 0 0 1-1v-9a1 1 0 0 0-1-1h-3"/>
        <path stroke="#000" stroke-linecap="round" stroke-linejoin="round" d="M8 .5A1.5 1.5 0 0 1 9.5 2v3.5h-3V2A1.5 1.5 0 0 1 8 .5z"/>
    </g>
</svg>
