<?xml version="1.0" encoding="UTF-8"?>
<svg xmlns="http://www.w3.org/2000/svg" xmlns:xlink="http://www.w3.org/1999/xlink" width="14pt" height="14pt" viewBox="0 0 14 14" version="1.1">
<g id="surface1">
<path style=" stroke:none;fill-rule:nonzero;fill:rgb(32.156863%,32.156863%,32.156863%);fill-opacity:1;" d="M 0 0 L 0 3.734375 L 0.582031 3.734375 L 0.582031 14 L 13.417969 14 L 13.417969 3.734375 L 14 3.734375 L 14 0 Z M 0.582031 0.621094 L 13.417969 0.621094 L 13.417969 3.109375 L 0.582031 3.109375 Z M 1.167969 3.734375 L 12.832031 3.734375 L 12.832031 13.378906 L 1.167969 13.378906 Z M 4.8125 4.976562 C 4.253906 4.976562 3.792969 5.46875 3.792969 6.066406 C 3.792969 6.664062 4.253906 7.15625 4.8125 7.15625 L 9.1875 7.15625 C 9.746094 7.15625 10.207031 6.664062 10.207031 6.066406 C 10.207031 5.46875 9.746094 4.976562 9.1875 4.976562 Z M 4.8125 5.601562 L 9.1875 5.601562 C 9.433594 5.601562 9.625 5.804688 9.625 6.066406 C 9.625 6.328125 9.433594 6.535156 9.1875 6.535156 L 4.8125 6.535156 C 4.566406 6.535156 4.375 6.328125 4.375 6.066406 C 4.375 5.804688 4.566406 5.601562 4.8125 5.601562 Z M 4.8125 5.601562 "/>
</g>
</svg>
