<svg xmlns="http://www.w3.org/2000/svg" width="16" height="16" viewBox="0 0 16 16">
    <path fill="none" fill-rule="nonzero" stroke="#000" d="M14.545 6.545H13.6a6.904 6.904 0 0 0-.655-1.527l.655-.654c.582-.582.582-1.455 0-2.037-.582-.582-1.455-.582-2.036 0l-.655.655a4.849 4.849 0 0 0-1.527-.655v-.872C9.382.655 8.727 0 7.927 0S6.473.655 6.473 1.455V2.4c-.437.145-.946.29-1.455.582l-.582-.655c-.581-.582-1.454-.582-2.036 0-.582.582-.582 1.455 0 2.037l.655.654c-.364.51-.51 1.018-.655 1.527h-.945C.655 6.545 0 7.2 0 8s.655 1.455 1.455 1.455H2.4c.145.509.364 1.018.655 1.527l-.655.654c-.582.582-.582 1.455 0 2.037.582.582 1.455.582 2.036 0l.655-.655c.436.291.945.51 1.527.655v.872c0 .8.655 1.455 1.455 1.455s1.454-.655 1.454-1.455V13.6a6.904 6.904 0 0 0 1.528-.655l.654.655c.582.582 1.455.582 2.036 0 .582-.582.582-1.455 0-2.036l-.654-.655c.29-.436.509-.945.654-1.527h.8c.8 0 1.455-.655 1.455-1.455 0-.727-.655-1.382-1.455-1.382zM8 10.182c-1.236 0-2.182-.946-2.182-2.182S6.764 5.818 8 5.818s2.182.946 2.182 2.182S9.236 10.182 8 10.182z"/>
</svg>
