<svg height="480pt" viewBox="0 0 480 480" width="480pt" xmlns="http://www.w3.org/2000/svg"><path d="m216 112h16v24h-16zm0 0"/><path d="m248 112h16v24h-16zm0 0"/><path d="m280 112h16v24h-16zm0 0"/><path d="m216 152h16v24h-16zm0 0"/><path d="m248 152h16v24h-16zm0 0"/><path d="m280 152h16v24h-16zm0 0"/><path d="m216 192h16v24h-16zm0 0"/><path d="m248 192h16v24h-16zm0 0"/><path d="m280 192h16v24h-16zm0 0"/><path d="m216 232h16v24h-16zm0 0"/><path d="m248 232h16v24h-16zm0 0"/><path d="m280 232h16v24h-16zm0 0"/><path d="m216 272h16v24h-16zm0 0"/><path d="m248 272h16v24h-16zm0 0"/><path d="m184 112h16v24h-16zm0 0"/><path d="m216 72h16v24h-16zm0 0"/><path d="m248 72h16v24h-16zm0 0"/><path d="m280 72h16v24h-16zm0 0"/><path d="m184 72h16v24h-16zm0 0"/><path d="m216 32h16v24h-16zm0 0"/><path d="m248 32h16v24h-16zm0 0"/><path d="m280 32h16v24h-16zm0 0"/><path d="m184 32h16v24h-16zm0 0"/><path d="m184 152h16v24h-16zm0 0"/><path d="m184 192h16v24h-16zm0 0"/><path d="m184 232h16v24h-16zm0 0"/><path d="m184 272h16v24h-16zm0 0"/><path d="m280 272h16v24h-16zm0 0"/><path d="m216 312h16v24h-16zm0 0"/><path d="m248 312h16v24h-16zm0 0"/><path d="m280 312h16v24h-16zm0 0"/><path d="m216 352h16v24h-16zm0 0"/><path d="m248 352h16v24h-16zm0 0"/><path d="m280 352h16v24h-16zm0 0"/><path d="m216 392h16v24h-16zm0 0"/><path d="m248 392h16v24h-16zm0 0"/><path d="m184 312h16v24h-16zm0 0"/><path d="m184 352h16v24h-16zm0 0"/><path d="m184 392h16v24h-16zm0 0"/><path d="m280 392h16v24h-16zm0 0"/><path d="m56 184h16v24h-16zm0 0"/><path d="m88 184h16v24h-16zm0 0"/><path d="m120 184h16v24h-16zm0 0"/><path d="m56 224h16v24h-16zm0 0"/><path d="m88 224h16v24h-16zm0 0"/><path d="m120 224h16v24h-16zm0 0"/><path d="m56 264h16v24h-16zm0 0"/><path d="m88 264h16v24h-16zm0 0"/><path d="m120 264h16v24h-16zm0 0"/><path d="m56 304h16v24h-16zm0 0"/><path d="m88 304h16v24h-16zm0 0"/><path d="m120 304h16v24h-16zm0 0"/><path d="m56 344h16v24h-16zm0 0"/><path d="m88 344h16v24h-16zm0 0"/><path d="m56 144h16v24h-16zm0 0"/><path d="m88 144h16v24h-16zm0 0"/><path d="m120 144h16v24h-16zm0 0"/><path d="m56 104h16v24h-16zm0 0"/><path d="m88 104h16v24h-16zm0 0"/><path d="m120 104h16v24h-16zm0 0"/><path d="m120 344h16v24h-16zm0 0"/><path d="m56 384h16v24h-16zm0 0"/><path d="m88 384h16v24h-16zm0 0"/><path d="m120 384h16v24h-16zm0 0"/><path d="m56 424h16v24h-16zm0 0"/><path d="m88 424h16v24h-16zm0 0"/><path d="m120 424h16v24h-16zm0 0"/><path d="m456 88h8v-16h-24v-16h8v-16h-120v-24h8v-16h-192v16h8v24h-120v16h8v16h-24v16h8v376h-24v16h480v-16h-24zm-304 376h-112v-376h112zm0-392h-96v-16h96zm80 392h-16v-16h16zm32 0h-16v-16h16zm48-416v416h-32v-24c0-4.417969-3.582031-8-8-8h-64c-4.417969 0-8 3.582031-8 8v24h-32v-448h144zm16 8h96v16h-96zm112 408h-112v-376h112zm0 0"/><path d="m408 184h16v24h-16zm0 0"/><path d="m376 184h16v24h-16zm0 0"/><path d="m344 184h16v24h-16zm0 0"/><path d="m408 224h16v24h-16zm0 0"/><path d="m376 224h16v24h-16zm0 0"/><path d="m344 224h16v24h-16zm0 0"/><path d="m408 264h16v24h-16zm0 0"/><path d="m376 264h16v24h-16zm0 0"/><path d="m344 264h16v24h-16zm0 0"/><path d="m408 304h16v24h-16zm0 0"/><path d="m376 304h16v24h-16zm0 0"/><path d="m344 304h16v24h-16zm0 0"/><path d="m408 344h16v24h-16zm0 0"/><path d="m376 344h16v24h-16zm0 0"/><path d="m408 144h16v24h-16zm0 0"/><path d="m376 144h16v24h-16zm0 0"/><path d="m344 144h16v24h-16zm0 0"/><path d="m408 104h16v24h-16zm0 0"/><path d="m376 104h16v24h-16zm0 0"/><path d="m344 104h16v24h-16zm0 0"/><path d="m344 344h16v24h-16zm0 0"/><path d="m408 384h16v24h-16zm0 0"/><path d="m376 384h16v24h-16zm0 0"/><path d="m344 384h16v24h-16zm0 0"/><path d="m408 424h16v24h-16zm0 0"/><path d="m376 424h16v24h-16zm0 0"/><path d="m344 424h16v24h-16zm0 0"/></svg>