<svg xmlns="http://www.w3.org/2000/svg" width="16" height="16" viewBox="0 0 46 46">
    <path fill="none" fill-rule="evenodd" stroke="#b3b3b3" stroke-width="2" d="M33.006 27.306a1.178 1.178 0 0 0-.85-.355c-.324 0-.616.124-.847.355l-1.05 1.036c-1.714-1.73-3.18-3.168-4.6-4.589l5.047-5.07 2.115-2.116a8.103 8.103 0 0 0 8.737-1.777c2.069-2.055 2.856-5.084 2.069-7.896l-.233-.804-5.478 5.501-4.57-4.574 5.48-5.501-.788-.215a8.116 8.116 0 0 0-7.903 2.054c-2.269 2.287-2.964 5.764-1.76 8.747l-2.114 2.131v-.015.015l-5.08 5.07A2399.756 2399.756 0 0 1 10.995 9.15s0-.016-.015-.031L8.786 5.364a.48.48 0 0 0-.138-.17L4.944 2.63a.513.513 0 0 0-.649.062L2.643 4.344a.495.495 0 0 0-.061.65l2.562 3.708c.046.062.108.108.17.155l3.75 2.194h.032c4.414 4.42 7.547 7.555 10.188 10.167l-5.079 5.069-2.115 2.117a8.108 8.108 0 0 0-8.736 1.777A8.099 8.099 0 0 0 1.3 38.077l.217.803L7.01 33.38l4.57 4.574-5.496 5.502.803.216a8.08 8.08 0 0 0 7.888-2.055 8.13 8.13 0 0 0 1.775-8.746l2.115-2.133 5.078-5.084a616.494 616.494 0 0 1 4.616 4.605l-1.033 1.035a1.179 1.179 0 0 0-.356.85c0 .325.124.618.356.85l11.638 11.652c.23.231.525.355.85.355.323 0 .616-.124.847-.355l3.985-3.988c.23-.23.353-.525.353-.85 0-.323-.124-.617-.353-.85l-11.641-11.65z"/>
</svg>
