<svg xmlns="http://www.w3.org/2000/svg" width="23" height="46" viewBox="0 0 23 46">
    <g fill="none" fill-rule="nonzero" stroke="#525252" stroke-width="2" transform="translate(2 1)">
        <path d="M19.261 39.186l-.623 2.549C14.319 43.436 13.057 44 10.283 44c-2.266 0-4.026-.552-5.281-1.657-1.256-1.104-1.884-2.506-1.884-4.206 0-1.5.241-2.885.595-4.361l2.338-8.27c.448-1.701 1.365-5.178.086-6.4-1.265-1.205-4.212-.468-5.992.198l.624-2.549c2.504-1.019 5.665-2.266 8.364-2.266 4.06 0 7.031 2.03 7.031 5.862 0 1-.185 3.026-.595 4.39l-2.329 8.241c-.291 1.014-.738 3.143-.738 4.191 0 1.095.244 1.841.734 2.237 1.33 1.077 4.477.505 6.025-.224z"/>
        <circle cx="14" cy="5" r="5"/>
    </g>
</svg>
