<svg width="32" height="32" viewBox="0 0 32 32" fill="none" xmlns="http://www.w3.org/2000/svg">
<path d="M31.6436 13.9239H28.0232C27.8176 13.9239 27.621 14.0128 27.4824 14.1684L17.6984 25.3813V0.355543C17.6984 0.159994 17.5375 0 17.3409 0H14.6591C14.4625 0 14.3016 0.159994 14.3016 0.355543V25.3813L4.5176 14.1684C4.38351 14.0128 4.18685 13.9239 3.97678 13.9239H0.3564C0.0524673 13.9239 -0.112908 14.2839 0.0882241 14.5106L14.9228 31.51C15.0569 31.6638 15.2227 31.7871 15.4089 31.8717C15.5952 31.9562 15.7975 32 16.0022 32C16.207 32 16.4093 31.9562 16.5955 31.8717C16.7818 31.7871 16.9475 31.6638 17.0816 31.51L31.9118 14.5106C32.1129 14.2795 31.9475 13.9239 31.6436 13.9239Z" fill="white"/>
</svg>
