<svg xmlns="http://www.w3.org/2000/svg" width="11" height="12" viewBox="0 0 11 12">
    <path fill="#747474" fill-rule="nonzero" d="M10.998 5.372a4.963 4.963 0 0 1-.31 1.785c-.384 1.004-1.127 1.73-2.188 1.73a1.518 1.518 0 0 1-1.435-.873 2.784 2.784 0 0 1-1.96.873 2.47 2.47 0 0 1-1.878-.721c-.921-.97-.997-3.103.215-4.278.986-.954 2.277-.98 3.634-.761.39.057.773.146 1.148.268L8.07 6.707c0 .627.17.94.512.941.287 0 .516-.211.687-.633.189-.531.276-1.093.256-1.656a3.998 3.998 0 0 0-.45-1.927c-.633-1.17-1.807-1.717-3.14-1.717a4.756 4.756 0 0 0-2.364.562c-1.448.81-2.075 2.374-2.075 4.07 0 1.247.331 2.203.994 2.869 1.446 1.456 4.214 1.083 6.132.376v1.3a8.059 8.059 0 0 1-3.2.617c-1.706 0-3.036-.452-3.99-1.355C.477 9.251 0 7.995 0 6.387 0 4.259.928 2.29 2.812 1.21A6.13 6.13 0 0 1 5.92.434c1.833 0 3.54.738 4.445 2.343.433.795.651 1.69.633 2.595zm-6.896.847c0 .953.386 1.43 1.158 1.43.983 0 1.237-.84 1.306-1.83l.088-1.497a3.646 3.646 0 0 0-.775-.075c-1.176 0-1.777.81-1.777 1.972z"/>
</svg>
