<?xml version="1.0" encoding="UTF-8" standalone="no"?>
<!-- Created with Inkscape (http://www.inkscape.org/) -->

<svg
   xmlns:dc="http://purl.org/dc/elements/1.1/"
   xmlns:cc="http://creativecommons.org/ns#"
   xmlns:rdf="http://www.w3.org/1999/02/22-rdf-syntax-ns#"
   xmlns:svg="http://www.w3.org/2000/svg"
   xmlns="http://www.w3.org/2000/svg"
   xmlns:sodipodi="http://sodipodi.sourceforge.net/DTD/sodipodi-0.dtd"
   xmlns:inkscape="http://www.inkscape.org/namespaces/inkscape"
   width="100"
   height="100"
   viewBox="0 0 26.458333 26.458334"
   version="1.1"
   id="svg5896"
   inkscape:version="0.92.1 r15371"
   sodipodi:docname="download.svg">
  <defs
     id="defs5890" />
  <sodipodi:namedview
     id="base"
     pagecolor="#ffffff"
     bordercolor="#666666"
     borderopacity="1.0"
     inkscape:pageopacity="0.0"
     inkscape:pageshadow="2"
     inkscape:zoom="1.4"
     inkscape:cx="-30.365852"
     inkscape:cy="92.156669"
     inkscape:document-units="mm"
     inkscape:current-layer="layer1"
     showgrid="false"
     units="px"
     inkscape:window-width="1366"
     inkscape:window-height="708"
     inkscape:window-x="-13"
     inkscape:window-y="-13"
     inkscape:window-maximized="1" />
  <metadata
     id="metadata5893">
    <rdf:RDF>
      <cc:Work
         rdf:about="">
        <dc:format>image/svg+xml</dc:format>
        <dc:type
           rdf:resource="http://purl.org/dc/dcmitype/StillImage" />
        <dc:title></dc:title>
      </cc:Work>
    </rdf:RDF>
  </metadata>
  <g
     inkscape:label="Layer 1"
     inkscape:groupmode="layer"
     id="layer1"
     transform="translate(0,-270.54165)">
    <path
       style="fill:#1a1a1a;stroke-width:0.11328537"
       d="m 12.209493,273.3557 v 3.00122 8.4727 l -2.018294,-2.00782 c -2.1687738,-2.15662 -2.3007432,-2.23748 -2.8934614,-1.77123 -0.211558,0.16629 -0.2995376,0.3397 -0.2995376,0.59652 0,0.32345 0.3168283,0.67836 2.9223984,3.27717 2.2025426,2.19664 2.9898336,2.91446 3.1956956,2.91446 0.205964,0 0.993152,-0.71782 3.195644,-2.91446 2.605773,-2.59881 2.919702,-2.95357 2.919702,-3.27717 0,-0.25733 -0.08492,-0.43023 -0.296994,-0.59652 -0.592718,-0.46635 -0.727281,-0.38549 -2.896056,1.77123 l -2.015598,2.00782 v -8.4727 -3.00122 z m 10.309738,19.07154 -9.290089,0.0305 -9.2900395,0.0305 v 0.84882 0.84888 h 9.2900395 9.290089 v -0.87776 z"
       id="path5878"
       inkscape:connector-curvature="0" />
  </g>
</svg>
