<svg xmlns="http://www.w3.org/2000/svg" width="42" height="46" viewBox="0 0 42 46">
    <path fill="#444" fill-rule="nonzero" d="M20.983 0c-.016.004-.027.004-.035.004-.016 0-.031.004-.047.004a.302.302 0 0 1-.059.008l-.05.011-.016.004-.082.024c-.008.004-.016.004-.024.007l-.062.024c-.012.008-.024.012-.035.02-.024.011-.043.019-.063.035h-.004-.004c-.195.117-.347.3-.425.515L2.784 32.641c0 .004 0 .004-.004.004-.02.035-.04.07-.055.105L.241 37.344c-.324.379-.32.937.008 1.312l4.898 5.88a1 1 0 0 0 .973.507l6.754.96a.999.999 0 0 0 1.125-.808l1.125-6.18h11.78l1.126 6.18a.999.999 0 0 0 1.125.809l6.808-.973a1 1 0 0 0 .926-.5l4.89-5.875a.995.995 0 0 0 .008-1.313l-8.98-16.613a.946.946 0 0 0-.137-.246L21.952.648a1.002 1.002 0 0 0-.668-.609h-.004a.824.824 0 0 0-.192-.035h-.007C21.049 0 21.014 0 20.983 0zm.031 6.61l3.043 16.73-6.598 2.824L21.014 6.61zm2.11.406l7.34 13.578-4.52 1.937-2.82-15.515zm-4.22.004l-3.652 20.09-9.378 4.019 13.03-24.11zm12.513 15.34l7.921 14.656H35.17a1.72 1.72 0 0 0-.14-.016.931.931 0 0 0-.18.016h-6.273l-2.266-12.47 5.106-2.187zm-6.997 3l2.122 11.656h-11.06l1.548-8.489 7.39-3.168zm-9.597 4.113l-1.371 7.543H6.436l-.32-3.813 8.707-3.73zM4.193 34.23l.235 2.786H2.69l1.504-2.786zm-1.046 4.786h1.445l.164 1.925-1.609-1.925zm3.453 0h6.488l-.886 4.875-5.258-.75-.344-4.125zm22.34 0h5.227l.69 4.156-5.03.719-.887-4.875zm7.254 0h2.683l-2.238 2.687-.445-2.687z"/>
</svg>
