<svg xmlns="http://www.w3.org/2000/svg" width="46" height="44" viewBox="0 0 46 44">
    <path fill="#525252" fill-rule="nonzero" d="M0 0v11.733h1.917V44h42.166V11.733H46V0H0zm1.917 1.956h42.166v7.822H1.917V1.956zm1.916 9.777h38.334v30.311H3.833v-30.31zm11.98 3.911c-1.842 0-3.355 1.543-3.355 3.423 0 1.879 1.513 3.422 3.354 3.422h14.376c1.841 0 3.354-1.543 3.354-3.422 0-1.88-1.513-3.423-3.355-3.423H15.813zm0 1.956h14.374c.805 0 1.438.645 1.438 1.467 0 .82-.633 1.466-1.438 1.466H15.813c-.804 0-1.437-.645-1.437-1.466 0-.822.633-1.467 1.438-1.467z"/>
</svg>
