<?xml version="1.0" encoding="UTF-8" standalone="no"?>
<!-- Created with Inkscape (http://www.inkscape.org/) -->

<svg
   xmlns:dc="http://purl.org/dc/elements/1.1/"
   xmlns:cc="http://creativecommons.org/ns#"
   xmlns:rdf="http://www.w3.org/1999/02/22-rdf-syntax-ns#"
   xmlns:svg="http://www.w3.org/2000/svg"
   xmlns="http://www.w3.org/2000/svg"
   xmlns:sodipodi="http://sodipodi.sourceforge.net/DTD/sodipodi-0.dtd"
   xmlns:inkscape="http://www.inkscape.org/namespaces/inkscape"
   width="256"
   height="256"
   viewBox="0 0 256 256"
   id="svg4569"
   version="1.1"
   inkscape:version="0.91 r13725"
   sodipodi:docname="location.svg">
  <defs
     id="defs4571" />
  <sodipodi:namedview
     id="base"
     pagecolor="#ffffff"
     bordercolor="#666666"
     borderopacity="1.0"
     inkscape:pageopacity="0.0"
     inkscape:pageshadow="2"
     inkscape:zoom="0.98994949"
     inkscape:cx="-21.882448"
     inkscape:cy="122.3787"
     inkscape:document-units="px"
     inkscape:current-layer="layer1"
     showgrid="false"
     units="px"
     inkscape:window-width="1366"
     inkscape:window-height="708"
     inkscape:window-x="-13"
     inkscape:window-y="-13"
     inkscape:window-maximized="1" />
  <metadata
     id="metadata4574">
    <rdf:RDF>
      <cc:Work
         rdf:about="">
        <dc:format>image/svg+xml</dc:format>
        <dc:type
           rdf:resource="http://purl.org/dc/dcmitype/StillImage" />
        <dc:title></dc:title>
      </cc:Work>
    </rdf:RDF>
  </metadata>
  <g
     inkscape:label="Layer 1"
     inkscape:groupmode="layer"
     id="layer1"
     transform="translate(0,-796.36216)">
    <path
       style="display:inline;fill:#1A1A1A;fill-opacity:1"
       inkscape:connector-curvature="0"
       d="m 128.81894,796.36215 0,0 c -0.26443,0 -0.52644,0 -0.80752,0 -0.26477,0 -0.52641,0 -0.80752,0 l 0,0 c -53.840963,0.87657 -97.229002,45.70772 -97.229002,100.92567 0,74.41004 85.505612,145.03918 98.025762,155.07438 12.51995,-10.0332 98.02444,-80.66587 98.02444,-155.07439 0,-55.21795 -43.38633,-100.05119 -97.22929,-100.92567 z m 0,144.35565 c -28.17254,0 -51.005407,-23.32323 -51.005407,-52.10216 0,-28.78914 22.832867,-52.11866 51.005407,-52.11866 28.17248,0 51.0073,23.32952 51.0073,52.11866 0,28.77892 -22.83482,52.10216 -51.0073,52.10216 z"
       id="path5984" />
    <path
       style="display:inline;fill:#1A1A1A;fill-opacity:1"
       inkscape:connector-curvature="0"
       d="m -570.93345,1155.2727 c -13.49756,-11.3378 -22.50968,-25.3329 -27.24815,-33.2941 l -3.53385,-6.8073 c 1.23523,-1.3545 10.6591,-11.6638 14.7435,-17.2578 5.13102,-7.0244 -2.30967,-13.369 -2.30967,-13.369 0,0 -20.93635,-21.3938 -25.70797,-25.6367 -4.77099,-4.2508 -10.26316,-1.8914 -10.26316,-1.8914 -10.02908,6.6196 -20.42497,12.3772 -21.04851,40.0588 0,25.9179 19.23206,52.648 40.05562,73.3429 20.85672,23.3703 49.49271,46.7952 77.17742,46.7693 27.09129,-0.6262 32.72299,-11.2519 39.20217,-21.499 0,0 2.31208,-5.6065 -1.84297,-10.4877 -4.15813,-4.8768 -25.10025,-26.2722 -25.10025,-26.2722 0,0 -6.20443,-7.6055 -13.08159,-2.356 -5.12451,3.9151 -14.32769,12.6195 -16.54483,14.7314 0.003,0 -15.39019,-8.3783 -24.49776,-16.0312 z"
       id="path5982" />
    <path
       style="display:inline;fill:#1A1A1A;fill-opacity:1"
       inkscape:connector-curvature="0"
       d="m -527.87534,800.38813 c -5.81666,0 -10.53761,4.82321 -10.53761,10.76535 l 0,27.99083 -7.41907,7.57505 c -2.63312,2.69223 -3.11852,5.22615 -3.11852,7.4995 0,5.94282 4.72092,10.76536 10.53759,10.76536 3.04659,0 5.47893,-1.29645 7.33518,-3.18717 l 10.91071,-11.14227 c 1.56533,-1.59929 2.82932,-4.09125 2.82932,-7.20284 l 0,-32.29846 c 0,-5.94214 -4.71973,-10.76535 -10.5376,-10.76535 z m 0,-32.29919 c -40.73687,0 -73.76183,33.74055 -73.76183,75.363 0,16.96252 5.55349,32.56772 14.80967,45.16522 l -11.74899,12.00386 c -2.04273,2.07694 -3.06068,4.56959 -3.06068,7.42841 0,6.39426 5.35387,10.76691 10.53761,10.76691 2.71817,0 5.19442,-1.00397 7.27019,-3.12459 l 11.74916,-12.00319 c 12.32884,9.45246 27.60375,15.12778 44.20487,15.12778 16.60216,0 31.87599,-5.67532 44.20486,-15.13349 l 11.74901,12.00388 c 2.07593,2.12686 4.552,3.12961 7.27137,3.12961 5.1851,0 10.53762,-4.37837 10.53762,-10.76691 0,-2.85882 -1.01574,-5.35147 -3.05711,-7.42841 l -11.74905,-12.00386 c 9.25287,-12.5975 14.80616,-28.2027 14.80616,-45.16522 0,-41.62245 -33.026,-75.363 -73.76286,-75.363 z m 0,129.19391 c -29.094,0 -52.68783,-24.10517 -52.68783,-53.83091 0,-29.72555 23.59383,-53.83073 52.68783,-53.83073 29.094,0 52.6878,24.10518 52.6878,53.83073 0,29.72574 -23.5938,53.83091 -52.6878,53.83091 z m 52.6878,-150.72685 c -11.22239,0 -21.05391,5.9912 -26.66519,14.99843 20.72214,6.86426 37.93017,21.66575 48.15114,40.94251 6.217,-5.89497 10.12668,-14.2963 10.12668,-23.64231 0,-17.834 -14.15787,-32.29863 -31.61263,-32.29863 z m -78.71059,14.99843 c -5.61009,-9.00723 -15.44262,-14.99843 -26.66504,-14.99843 -17.45474,0 -31.61162,14.46463 -31.61162,32.29863 0,9.34601 3.90971,17.74734 10.1267,23.64804 10.21519,-19.27658 27.42916,-34.0793 48.14996,-40.94824 z"
       id="path6020" />
    <path
       style="display:inline;fill:#000000;fill-opacity:1;stroke:none;stroke-opacity:1"
       inkscape:connector-curvature="0"
       d="m -266.2518,996.63741 0,-115.65646 -38.02368,0 0,-41.24508 38.03376,0 0,-38.06851 c 0,-38.39809 20.88251,-61.0195 52.42688,-61.0195 15.11411,0 27.4461,1.75587 31.23318,2.30424 l 0,43.12262 -25.39482,0 c -17.15388,0 -20.36582,9.23983 -20.36582,22.22523 l 0,31.44839 43.96217,0 -6.20962,41.24487 -37.75255,0 0,115.6547 -37.9095,0 z"
       id="path7612" />
    <g
       style="display:inline;opacity:1;fill:#000000;fill-opacity:1;stroke:none;stroke-opacity:1"
       transform="matrix(2.6666667,0,0,2.6725583,-420.52381,840.46129)"
       id="g7618">
      <g
         style="fill:#000000;fill-opacity:1;stroke:none;stroke-opacity:1"
         id="g7620">
        <path
           id="path7622"
           d="m 86,112 -44,0 C 27.664,112 16,100.337 16,86 L 16,42 C 16,27.664 27.664,16 42,16 l 44,0 c 14.337,0 26,11.664 26,26 l 0,44 c 0,14.337 -11.663,26 -26,26 z M 42,24 c -9.925,0 -18,8.075 -18,18 l 0,44 c 0,9.925 8.075,18 18,18 l 44,0 c 9.925,0 18,-8.075 18,-18 l 0,-44 C 104,32.075 95.925,24 86,24 l -44,0 z"
           inkscape:connector-curvature="0"
           style="fill:#000000;fill-opacity:1;stroke:none;stroke-opacity:1" />
      </g>
      <g
         style="fill:#000000;fill-opacity:1;stroke:none;stroke-opacity:1"
         id="g7624">
        <path
           id="path7626"
           d="M 64,88 C 50.766,88 40,77.233 40,64 40,50.766 50.766,40 64,40 77.233,40 88,50.766 88,64 88,77.233 77.233,88 64,88 Z m 0,-40 c -8.822,0 -16,7.178 -16,16 0,8.822 7.178,16 16,16 8.822,0 16,-7.178 16,-16 0,-8.822 -7.178,-16 -16,-16 z"
           inkscape:connector-curvature="0"
           style="fill:#000000;fill-opacity:1;stroke:none;stroke-opacity:1" />
      </g>
      <g
         style="fill:#000000;fill-opacity:1;stroke:none;stroke-opacity:1"
         id="g7628">
        <circle
           id="circle7630"
           r="5.5"
           cy="38.5"
           cx="89.5"
           style="fill:#000000;fill-opacity:1;stroke:none;stroke-opacity:1" />
      </g>
    </g>
  </g>
</svg>
