<?xml version="1.0" encoding="UTF-8" standalone="no"?>
<!-- Created with Inkscape (http://www.inkscape.org/) -->

<svg
   xmlns:dc="http://purl.org/dc/elements/1.1/"
   xmlns:cc="http://creativecommons.org/ns#"
   xmlns:rdf="http://www.w3.org/1999/02/22-rdf-syntax-ns#"
   xmlns:svg="http://www.w3.org/2000/svg"
   xmlns="http://www.w3.org/2000/svg"
   xmlns:sodipodi="http://sodipodi.sourceforge.net/DTD/sodipodi-0.dtd"
   xmlns:inkscape="http://www.inkscape.org/namespaces/inkscape"
   width="256"
   height="256"
   viewBox="0 0 256 256"
   id="svg4569"
   version="1.1"
   inkscape:version="0.91 r13725"
   sodipodi:docname="mail.svg">
  <defs
     id="defs4571" />
  <sodipodi:namedview
     id="base"
     pagecolor="#ffffff"
     bordercolor="#666666"
     borderopacity="1.0"
     inkscape:pageopacity="0.0"
     inkscape:pageshadow="2"
     inkscape:zoom="0.98994949"
     inkscape:cx="213.67072"
     inkscape:cy="89.741629"
     inkscape:document-units="px"
     inkscape:current-layer="layer1"
     showgrid="false"
     units="px"
     inkscape:window-width="1366"
     inkscape:window-height="708"
     inkscape:window-x="-13"
     inkscape:window-y="-13"
     inkscape:window-maximized="1" />
  <metadata
     id="metadata4574">
    <rdf:RDF>
      <cc:Work
         rdf:about="">
        <dc:format>image/svg+xml</dc:format>
        <dc:type
           rdf:resource="http://purl.org/dc/dcmitype/StillImage" />
        <dc:title />
      </cc:Work>
    </rdf:RDF>
  </metadata>
  <g
     inkscape:label="Layer 1"
     inkscape:groupmode="layer"
     id="layer1"
     transform="translate(0,-796.36216)">
    <g
       id="g7946"
       transform="matrix(2.3423061,0,0,2.3474812,-34.787932,757.59827)"
       style="display:inline;fill:#000000;fill-opacity:1">
      <path
         id="path7936"
         d="m 69.5,64.534 46.415,-28.941 c -0.505,-0.08 -1.017,-0.132 -1.542,-0.132 l -89.746,0 c -0.525,0 -1.038,0.054 -1.541,0.132 L 69.5,64.534 Z"
         inkscape:connector-curvature="0"
         style="fill:#000000;fill-opacity:1" />
      <path
         id="path7938"
         d="m 72.421,75.723 c -0.062,0.04 -0.13,0.066 -0.194,0.104 -0.067,0.037 -0.139,0.073 -0.206,0.107 -0.365,0.188 -0.741,0.339 -1.125,0.439 -0.04,0.011 -0.078,0.017 -0.116,0.025 -0.423,0.099 -0.848,0.16 -1.274,0.16 -0.001,0 -0.003,0 -0.004,0 -10e-4,0 -0.003,0 -0.005,0 -0.426,0 -0.852,-0.06 -1.273,-0.16 C 68.185,76.389 68.145,76.383 68.106,76.373 67.722,76.272 67.349,76.121 66.982,75.934 66.913,75.9 66.843,75.864 66.775,75.827 66.71,75.79 66.643,75.764 66.579,75.723 L 15.005,43.564 c -0.093,0.544 -0.153,1.099 -0.153,1.671 l 0,51.609 c 0,5.398 4.375,9.774 9.774,9.774 l 89.746,0 c 5.398,0 9.774,-4.376 9.774,-9.774 l 0,-51.609 c 0,-0.572 -0.059,-1.127 -0.154,-1.671 L 72.421,75.723 Z"
         inkscape:connector-curvature="0"
         style="fill:#000000;fill-opacity:1" />
    </g>
  </g>
</svg>
