<svg xmlns="http://www.w3.org/2000/svg" width="22" height="26" viewBox="0 0 22 26">
    <g fill="none" fill-rule="evenodd">
        <path fill="#444" fill-rule="nonzero" d="M8.56 16.44c0 .4-.12.72-.36.92-.24.2-.6.32-1.08.32H6.8V19H6v-3.72h1.2c.44 0 .8.08 1.04.28.2.2.32.52.32.88zm-1.8.6H7c.24 0 .44-.04.56-.16.12-.12.2-.24.2-.4 0-.2-.04-.32-.16-.4-.12-.08-.24-.12-.48-.12h-.36v1.08zM12.44 17.12c0 .6-.16 1.08-.52 1.4-.36.32-.84.48-1.52.48H9.36v-3.72h1.16c.6 0 1.08.16 1.4.48.36.32.52.76.52 1.36zm-.84 0c0-.8-.36-1.2-1.04-1.2h-.4v2.4h.32c.76.04 1.12-.36 1.12-1.2zM14.08 19h-.76v-3.72h2.12v.64h-1.36v.96h1.24v.64h-1.24z"/>
        <path stroke="#444" stroke-width="2" d="M13.8 1v6.4h6.4"/>
        <path stroke="#444" stroke-linecap="square" stroke-width="2" d="M20.2 13V7.4L13.8 1H1v12M1 21.4V25h19.2v-3.6"/>
    </g>
</svg>
