<?xml version="1.0" encoding="UTF-8" standalone="no"?>
<!-- Created with Inkscape (http://www.inkscape.org/) -->

<svg
   xmlns:dc="http://purl.org/dc/elements/1.1/"
   xmlns:cc="http://creativecommons.org/ns#"
   xmlns:rdf="http://www.w3.org/1999/02/22-rdf-syntax-ns#"
   xmlns:svg="http://www.w3.org/2000/svg"
   xmlns="http://www.w3.org/2000/svg"
   xmlns:sodipodi="http://sodipodi.sourceforge.net/DTD/sodipodi-0.dtd"
   xmlns:inkscape="http://www.inkscape.org/namespaces/inkscape"
   width="256"
   height="256"
   viewBox="0 0 256 256"
   id="svg4569"
   version="1.1"
   inkscape:version="0.91 r13725"
   sodipodi:docname="other.svg">
  <defs
     id="defs4571">
    <pattern
       y="0"
       x="0"
       height="6"
       width="6"
       patternUnits="userSpaceOnUse"
       id="EMFhbasepattern" />
  </defs>
  <sodipodi:namedview
     id="base"
     pagecolor="#ffffff"
     bordercolor="#666666"
     borderopacity="1.0"
     inkscape:pageopacity="0.0"
     inkscape:pageshadow="2"
     inkscape:zoom="1.4"
     inkscape:cx="12.148419"
     inkscape:cy="114.13698"
     inkscape:document-units="px"
     inkscape:current-layer="layer1"
     showgrid="false"
     units="px"
     inkscape:window-width="1366"
     inkscape:window-height="708"
     inkscape:window-x="-13"
     inkscape:window-y="-13"
     inkscape:window-maximized="1" />
  <metadata
     id="metadata4574">
    <rdf:RDF>
      <cc:Work
         rdf:about="">
        <dc:format>image/svg+xml</dc:format>
        <dc:type
           rdf:resource="http://purl.org/dc/dcmitype/StillImage" />
        <dc:title></dc:title>
      </cc:Work>
    </rdf:RDF>
  </metadata>
  <g
     inkscape:label="Layer 1"
     inkscape:groupmode="layer"
     id="layer1"
     transform="translate(0,-796.36216)">
    <g
       id="miu"
       transform="matrix(12.091272,0,0,12.091,-23.640056,773.70465)"
       style="opacity:1;fill:#000000;fill-opacity:1;fill-rule:evenodd;stroke:none;stroke-width:1">
      <g
         transform="translate(-899,-227)"
         id="Artboard-1"
         style="fill:#000000;fill-opacity:1">
        <g
           transform="translate(215,119)"
           id="slice"
           style="fill:#000000;fill-opacity:1" />
        <path
           transform="matrix(0.70710678,0.70710678,-0.70710678,0.70710678,436.73855,-573.38014)"
           id="editor-pencil-pen-edit-write-glyph"
           d="m 914.00003,248.00241 4.3e-4,-16 0,0 -6.99911,0 -10e-4,16 6.99995,0 z m -0.002,1 -3.49664,4.99759 -3.49998,-4.99759 6.99662,0 z m 0.002,-18 8e-5,-3 C 914.00057,227 912.99816,227 912.99816,227 l -4.99407,0 c 0,0 -1.00242,0 -1.00242,1.00241 l -2.4e-4,3 6.99906,0 0,0 z"
           inkscape:connector-curvature="0"
           style="fill:#000000;fill-opacity:1" />
      </g>
    </g>
  </g>
</svg>
