<?xml version="1.0" encoding="UTF-8" standalone="no"?>
<!-- Created with Inkscape (http://www.inkscape.org/) -->

<svg
   xmlns:dc="http://purl.org/dc/elements/1.1/"
   xmlns:cc="http://creativecommons.org/ns#"
   xmlns:rdf="http://www.w3.org/1999/02/22-rdf-syntax-ns#"
   xmlns:svg="http://www.w3.org/2000/svg"
   xmlns="http://www.w3.org/2000/svg"
   xmlns:sodipodi="http://sodipodi.sourceforge.net/DTD/sodipodi-0.dtd"
   xmlns:inkscape="http://www.inkscape.org/namespaces/inkscape"
   width="256"
   height="256"
   viewBox="0 0 256 256"
   id="svg4569"
   version="1.1"
   inkscape:version="0.91 r13725"
   sodipodi:docname="share_black.svg">
  <defs
     id="defs4571" />
  <sodipodi:namedview
     id="base"
     pagecolor="#ffffff"
     bordercolor="#666666"
     borderopacity="1.0"
     inkscape:pageopacity="0.0"
     inkscape:pageshadow="2"
     inkscape:zoom="1.4"
     inkscape:cx="112.14675"
     inkscape:cy="133.27816"
     inkscape:document-units="px"
     inkscape:current-layer="layer1"
     showgrid="false"
     units="px"
     inkscape:window-width="1920"
     inkscape:window-height="993"
     inkscape:window-x="1920"
     inkscape:window-y="24"
     inkscape:window-maximized="1" />
  <metadata
     id="metadata4574">
    <rdf:RDF>
      <cc:Work
         rdf:about="">
        <dc:format>image/svg+xml</dc:format>
        <dc:type
           rdf:resource="http://purl.org/dc/dcmitype/StillImage" />
        <dc:title />
      </cc:Work>
    </rdf:RDF>
  </metadata>
  <g
     inkscape:label="Layer 1"
     inkscape:groupmode="layer"
     id="layer1"
     transform="translate(0,-796.36216)">
    <path
       id="path5402-7"
       d="m 212.1654,962.55019 c -12.5038,0 -23.7504,5.26021 -31.73559,13.65496 L 87.126975,930.5246 c 0.321234,-2.14574 0.542083,-4.3191 0.542083,-6.55393 0,-2.17838 -0.21081,-4.30279 -0.515732,-6.39207 l 93.165934,-45.17989 c 7.99046,8.46378 19.28963,13.77544 31.84614,13.77544 24.20817,0 43.83459,-19.62542 43.83459,-43.83346 0,-24.21306 -19.62642,-43.83472 -43.83459,-43.83472 -24.20804,0 -43.83447,19.62166 -43.83447,43.83472 0,2.17712 0.21082,4.29777 0.51574,6.39081 l -93.165936,45.18114 c -7.990586,-8.46377 -19.284491,-13.77669 -31.846144,-13.77669 -24.213433,0 -43.8345925,19.62668 -43.8345925,43.83472 0,24.21305 19.6211595,43.83346 43.8345925,43.83346 12.50368,0 23.750404,-5.25896 31.735593,-13.65498 l 93.302837,45.6806 c -0.32124,2.14065 -0.54209,4.31905 -0.54209,6.55515 0,24.213 19.62643,43.8334 43.83447,43.8334 24.20817,0 43.8346,-19.6204 43.8346,-43.8334 0,-24.21305 -19.62643,-43.83471 -43.8346,-43.83471 z"
       inkscape:connector-curvature="0"
       style="display:inline;fill:#000000;fill-opacity:1" />
  </g>
</svg>
