<svg xmlns="http://www.w3.org/2000/svg" width="9" height="7" viewBox="0 0 9 7">
    <g fill="#CCC" fill-rule="nonzero">
        <path d="M5.175 7h-1.35a.666.666 0 0 1-.675-.656c0-.363.302-.657.675-.657h1.35c.373 0 .675.294.675.657A.666.666 0 0 1 5.175 7zM6.525 4.156h-4.05A.666.666 0 0 1 1.8 3.5c0-.362.302-.656.675-.656h4.05c.373 0 .675.294.675.656a.666.666 0 0 1-.675.656zM8.25 1.313H.75c-.414 0-.75-.294-.75-.657C0 .294.336 0 .75 0h7.5c.414 0 .75.294.75.656 0 .362-.336.656-.75.656z"/>
    </g>
</svg>
